<svg width="220" height="220" viewBox="0 0 220 220" xmlns="http://www.w3.org/2000/svg">
  <defs>
    <linearGradient id="g" x1="0" y1="0" x2="1" y2="1">
      <stop offset="0%" stop-color="#2E7D32"/>
      <stop offset="55%" stop-color="#66BB6A"/>
      <stop offset="100%" stop-color="#FBC02D"/>
    </linearGradient>
    <filter id="shadow" x="-20%" y="-20%" width="140%" height="140%">
      <feDropShadow dx="0" dy="8" stdDeviation="8" flood-color="#000000" flood-opacity="0.25"/>
    </filter>
  </defs>
  <circle cx="110" cy="110" r="92" fill="url(#g)" filter="url(#shadow)"/>
  <circle cx="110" cy="110" r="75" fill="#FFFFFF" opacity="0.92"/>
  <path d="M64 117c0-27 21-48 48-48s48 21 48 48c0 22-15 41-35 46v-24h16c5 0 9-4 9-9s-4-9-9-9h-16v-12h20c5 0 9-4 9-9s-4-9-9-9h-20V78c-4-1-8-2-13-2s-9 1-13 2v13H79c-5 0-9 4-9 9s4 9 9 9h20v12H83c-5 0-9 4-9 9s4 9 9 9h16v24c-20-5-35-24-35-46z" fill="#2E7D32"/>
  <path d="M93 55c10-20 30-24 45-18-2 17-16 31-34 34-6 1-11-5-11-16z" fill="#43A047"/>
  <text x="110" y="188" text-anchor="middle" font-family="Arial, sans-serif" font-size="18" font-weight="700" fill="#1B5E20">IA Lima</text>
</svg>